<svg width="15" height="18" viewBox="0 0 15 18" fill="none" xmlns="http://www.w3.org/2000/svg">
<path fill-rule="evenodd" clip-rule="evenodd" d="M9.54004 0.0373765C8.33161 0.237383 7.3688 1.16078 7.12493 2.35362C7.0473 2.73316 7.07055 3.31422 7.17814 3.68536C7.46083 4.66053 8.19103 5.38621 9.20712 5.70189C9.4372 5.77339 9.54405 5.78433 10.0059 5.78355C10.4613 5.78278 10.578 5.77075 10.8057 5.70115C11.6344 5.44787 12.3168 4.86459 12.6694 4.10827C12.835 3.75307 12.9006 3.48909 12.9263 3.07493C12.9784 2.23604 12.6784 1.45824 12.0711 0.857274C11.403 0.196235 10.4484 -0.112972 9.54004 0.0373765ZM4.40634 4.39321C3.3305 4.61784 2.5039 5.37 2.18161 6.41748C2.09563 6.69697 2.08415 6.79161 2.08336 7.22637C2.08241 7.77754 2.12741 7.99861 2.32809 8.42887C2.72605 9.28204 3.48423 9.88452 4.40218 10.077C4.71459 10.1425 5.27033 10.141 5.59955 10.0737C6.94646 9.79843 7.92654 8.5992 7.92654 7.22637C7.92654 5.40004 6.20808 4.01701 4.40634 4.39321ZM8.61281 6.07229C8.62401 6.10739 8.68042 6.27065 8.73814 6.43506C8.88942 6.86581 8.93453 7.20059 8.91235 7.72672C8.87595 8.58875 8.56376 9.34999 7.99347 9.96738L7.82108 10.154L8.04267 10.2334C9.44047 10.7343 10.508 11.9021 10.8727 13.329C10.9137 13.4894 10.9558 13.6291 10.9661 13.6393C11.0021 13.6749 12.0399 13.5753 12.5672 13.4857C13.4241 13.3399 14.0424 13.1673 14.6712 12.8984L15 12.7578V11.0527C15 9.46731 14.9948 9.32252 14.9265 8.99063C14.6409 7.60377 13.5855 6.50653 12.1742 6.12906L11.8187 6.03396L10.2055 6.02123C8.6603 6.00902 8.59326 6.01117 8.61281 6.07229ZM3.13468 10.3938C1.57184 10.6595 0.352607 11.8485 0.0558767 13.3962C0.00984592 13.6363 0 13.9905 0 15.4056V17.1235L0.360036 17.2334C2.10999 17.7677 4.04868 18.0454 5.66943 17.9939C7.29288 17.9424 8.69524 17.6658 9.74822 17.1894L9.98815 17.0809V15.3659C9.98815 13.4973 9.97923 13.3878 9.78114 12.8191C9.571 12.2158 9.12448 11.5932 8.60172 11.1745C8.22878 10.8758 7.6425 10.5827 7.16232 10.4548L6.80687 10.3602L5.11848 10.3519C3.7865 10.3453 3.36775 10.3542 3.13468 10.3938Z" fill="#FBF5F3"/>
</svg>
