<svg width="20" height="21" viewBox="0 0 20 21" fill="none" xmlns="http://www.w3.org/2000/svg">
<g clip-path="url(#clip0)">
<path d="M7.70828 0.5H1.45828C0.654144 0.5 0 1.15414 0 1.95828V5.70828C0 6.51257 0.654144 7.16672 1.45828 7.16672H7.70828C8.51257 7.16672 9.16672 6.51257 9.16672 5.70828V1.95828C9.16672 1.15414 8.51257 0.5 7.70828 0.5Z" fill="#870557"/>
<path d="M7.70828 8.83337H1.45828C0.654144 8.83337 0 9.48752 0 10.2918V19.0418C0 19.8459 0.654144 20.5001 1.45828 20.5001H7.70828C8.51257 20.5001 9.16672 19.8459 9.16672 19.0418V10.2918C9.16672 9.48752 8.51257 8.83337 7.70828 8.83337Z" fill="#870557"/>
<path d="M18.5405 13.8334H12.2905C11.4862 13.8334 10.832 14.4875 10.832 15.2918V19.0418C10.832 19.8459 11.4862 20.5001 12.2905 20.5001H18.5405C19.3446 20.5001 19.9987 19.8459 19.9987 19.0418V15.2918C19.9987 14.4875 19.3446 13.8334 18.5405 13.8334Z" fill="#870557"/>
<path d="M18.5405 0.5H12.2905C11.4862 0.5 10.832 1.15414 10.832 1.95828V10.7083C10.832 11.5126 11.4862 12.1667 12.2905 12.1667H18.5405C19.3446 12.1667 19.9987 11.5126 19.9987 10.7083V1.95828C19.9987 1.15414 19.3446 0.5 18.5405 0.5V0.5Z" fill="#870557"/>
</g>
<defs>
<clipPath id="clip0">
<rect width="20" height="20" fill="white" transform="translate(0 0.5)"/>
</clipPath>
</defs>
</svg>
