<svg width="20" height="21" viewBox="0 0 20 21" fill="none" xmlns="http://www.w3.org/2000/svg">
<path d="M7.92969 7.96167V6.82886C7.92969 5.7519 8.80586 4.87573 9.88281 4.87573H15.4492V2.72729C15.4492 2.29581 15.0995 1.94604 14.668 1.94604H5.33203C4.90055 1.94604 4.55078 2.29581 4.55078 2.72729V7.96167H7.92969Z" fill="#FBF5F3"/>
<path d="M9.88281 14.9929C8.80586 14.9929 7.92969 14.1168 7.92969 13.0398V9.13354H0.78125C0.349766 9.13354 0 9.48331 0 9.9148V16.1257C0 16.5572 0.349766 16.907 0.78125 16.907H2.85156V18.6626C2.85156 18.894 3.04145 19.0539 3.24379 19.0539C3.32328 19.0539 3.40465 19.0293 3.47727 18.9745L6.22113 16.907H10.1172C10.5487 16.907 10.8984 16.5572 10.8984 16.1257V14.9929H9.88281V14.9929Z" fill="#FBF5F3"/>
<path d="M19.2188 6.04761H9.88281C9.45133 6.04761 9.10156 6.39737 9.10156 6.82886V13.0398C9.10156 13.4713 9.45133 13.8211 9.88281 13.8211H13.7789L16.5227 15.8886C16.5954 15.9434 16.6767 15.968 16.7562 15.968C16.9586 15.968 17.1484 15.8081 17.1484 15.5767V13.8211H19.2188C19.6502 13.8211 20 13.4713 20 13.0398V6.8289C20 6.39737 19.6502 6.04761 19.2188 6.04761Z" fill="#FBF5F3"/>
</svg>
