<svg width="24" height="24" viewBox="0 0 24 24" fill="none" xmlns="http://www.w3.org/2000/svg">
<path d="M20.9332 0H3.0668C1.37573 0 0 1.37578 0 3.06684V20.9332C0 22.6242 1.37573 24 3.0668 24H20.9332C22.6243 24 24 22.6242 24 20.9332V3.06684C24 1.37578 22.6243 0 20.9332 0ZM22.5863 20.9332C22.5863 21.8448 21.8447 22.5863 20.9332 22.5863H3.0668C2.15522 22.5863 1.41361 21.8447 1.41361 20.9332V18.3547L6.06619 14.3961C6.23597 14.2516 6.48366 14.2503 6.65503 14.3926L9.56944 16.8127C9.85045 17.046 10.263 17.0268 10.5212 16.7683L17.446 9.83297C17.5711 9.70758 17.7171 9.69539 17.7932 9.69928C17.8692 9.70317 18.0133 9.73027 18.125 9.86784L22.5864 15.3611V20.9332H22.5863ZM22.5863 13.1187L19.2223 8.97651C18.8887 8.5657 18.3942 8.31455 17.8657 8.28741C17.3375 8.26069 16.8195 8.45953 16.4456 8.83406L9.9765 15.3132L7.55822 13.3051C6.85702 12.7228 5.84433 12.7289 5.15011 13.3195L1.41361 16.4987V3.06684C1.41361 2.15527 2.15522 1.41366 3.0668 1.41366H20.9332C21.8448 1.41366 22.5863 2.15527 22.5863 3.06684V13.1187Z" fill="#505050"/>
<path d="M7.55295 2.95312C5.6735 2.95312 4.14453 4.48219 4.14453 6.36155C4.14453 8.24095 5.67355 9.76997 7.55295 9.76997C9.43236 9.76997 10.9614 8.24095 10.9614 6.36155C10.9614 4.48214 9.43241 2.95312 7.55295 2.95312ZM7.55295 8.35636C6.45298 8.35636 5.55814 7.46147 5.55814 6.36155C5.55814 5.26158 6.45298 4.36673 7.55295 4.36673C8.65292 4.36673 9.54777 5.26163 9.54777 6.36155C9.54777 7.46147 8.65292 8.35636 7.55295 8.35636Z" fill="#505050"/>
</svg>
