<svg width="20" height="21" viewBox="0 0 20 21" fill="none" xmlns="http://www.w3.org/2000/svg">
<g clip-path="url(#clip0)">
<path d="M12.4999 11.3337C12.0391 11.3337 11.6666 11.7071 11.6666 12.1669V15.5004C11.6666 15.9595 11.2932 16.3336 10.8332 16.3336H8.33319V3.83374C8.33319 3.12208 7.87986 2.48625 7.19826 2.24959L6.95153 2.16704H10.8332C11.2932 2.16704 11.6666 2.54118 11.6666 3.00047V5.50044C11.6666 5.96034 12.0391 6.33372 12.4999 6.33372C12.9607 6.33372 13.3331 5.96034 13.3331 5.50044V3.00047C13.3331 1.62215 12.2115 0.500488 10.8332 0.500488H1.87498C1.84324 0.500488 1.81669 0.514679 1.78587 0.518799C1.74574 0.515442 1.70744 0.500488 1.6667 0.500488C0.74752 0.500488 0 1.24786 0 2.16704V17.1669C0 17.8786 0.453334 18.5144 1.13494 18.7511L6.14999 20.4228C6.31997 20.4753 6.48904 20.5003 6.66665 20.5003C7.58583 20.5003 8.33319 19.7528 8.33319 18.8336V18.0003H10.8332C12.2115 18.0003 13.3331 16.8787 13.3331 15.5004V12.1669C13.3331 11.7071 12.9607 11.3337 12.4999 11.3337Z" fill="#FBF5F3"/>
<path d="M19.7545 8.24426L16.4211 4.91102C16.1829 4.67268 15.8245 4.60096 15.5129 4.73005C15.2021 4.85929 14.9987 5.16339 14.9987 5.50015V8.00013H11.6655C11.2054 8.00013 10.832 8.37335 10.832 8.8334C10.832 9.29345 11.2054 9.66667 11.6655 9.66667H14.9987V12.1666C14.9987 12.5034 15.2021 12.8075 15.5129 12.9368C15.8245 13.0658 16.1829 12.9941 16.4211 12.7559L19.7545 9.42254C20.0803 9.09676 20.0803 8.57004 19.7545 8.24426Z" fill="#FBF5F3"/>
</g>
<defs>
<clipPath id="clip0">
<rect width="20" height="20" fill="white" transform="translate(0 0.5)"/>
</clipPath>
</defs>
</svg>
