<svg width="20" height="21" viewBox="0 0 20 21" fill="none" xmlns="http://www.w3.org/2000/svg">
<g clip-path="url(#clip0)">
<path d="M18.7435 13.776V7.5553L17.5716 7.94592V13.776C16.8429 14.0214 16.3164 14.7106 16.3164 15.521V18.659C16.3164 18.9826 16.5788 19.2449 16.9023 19.2449H19.4127C19.7363 19.2449 19.9987 18.9826 19.9987 18.659V15.521C19.9987 14.7106 19.4722 14.0214 18.7435 13.776Z" fill="#FBF5F3"/>
<path d="M9.44434 10.2846L3.76562 8.39172V12.3826C3.76562 12.538 3.82738 12.687 3.93727 12.7969C5.55687 14.4163 7.71012 15.3082 10.0003 15.3082C12.2905 15.3082 14.4435 14.4163 16.0628 12.7968C16.1727 12.687 16.2344 12.5379 16.2344 12.3826V8.39172L10.5559 10.2846C10.1677 10.4138 9.77695 10.3954 9.44434 10.2846Z" fill="#FBF5F3"/>
<path d="M10 9.20309C10.0626 9.20309 10.1252 9.19305 10.1853 9.17301L19.5993 6.03501C19.8386 5.95524 20 5.73133 20 5.47915C20 5.22696 19.8386 5.00305 19.5993 4.92329L10.1853 1.78528C10.065 1.74524 9.93496 1.74524 9.81473 1.78528L0.400664 4.92329C0.161367 5.00301 0 5.22692 0 5.47915C0 5.73137 0.161367 5.95524 0.400664 6.03501L9.81473 9.17301C9.87484 9.19305 9.93742 9.20309 10 9.20309Z" fill="#FBF5F3"/>
</g>
<defs>
<clipPath id="clip0">
<rect width="20" height="20" fill="white" transform="translate(0 0.5)"/>
</clipPath>
</defs>
</svg>
