<svg width="20" height="14" viewBox="0 0 20 14" fill="none" xmlns="http://www.w3.org/2000/svg">
<path d="M19.8779 6.70411L13.6279 0.454111C13.4652 0.291338 13.2015 0.291338 13.0387 0.454111C12.876 0.616885 12.876 0.880557 13.0387 1.04329L18.5775 6.58204H0.41668C0.186367 6.58204 0 6.76841 0 6.99872C0 7.22903 0.186367 7.4154 0.41668 7.4154H18.5775L13.0387 12.9541C12.876 13.1169 12.876 13.3806 13.0387 13.5433C13.1201 13.6247 13.2268 13.6654 13.3334 13.6654C13.44 13.6654 13.5466 13.6247 13.628 13.5433L19.878 7.29329C20.0407 7.13056 20.0407 6.86688 19.8779 6.70411Z" fill="#870557"/>
</svg>
