<svg width="20" height="21" viewBox="0 0 20 21" fill="none" xmlns="http://www.w3.org/2000/svg">
<path d="M19.4141 3.46875H18.8281V15.7734C18.8281 16.7427 18.0005 17.5312 17.0312 17.5312H11.6577C11.4157 18.2133 10.7639 18.7031 10 18.7031C9.23609 18.7031 8.58438 18.2133 8.34231 17.5312H2.96875C1.99945 17.5312 1.17188 16.7427 1.17188 15.7734V3.46875H0.585938C0.26207 3.46875 0 3.73082 0 4.05469V18.1172C0 18.4411 0.26207 18.7031 0.585938 18.7031H7.17043C7.41246 19.3852 8.06422 19.875 8.82812 19.875H11.1719C11.9358 19.875 12.5875 19.3852 12.8296 18.7031H19.4141C19.7379 18.7031 20 18.4411 20 18.1172V4.05469C20 3.73082 19.7379 3.46875 19.4141 3.46875Z" fill="#FBF5F3"/>
<path d="M9.41406 15.9301V2.49C8.60305 1.81223 7.30078 1.125 5.3125 1.125C4.98863 1.125 4.72656 1.38707 4.72656 1.71094V13.4297C4.72656 13.7536 4.98863 14.0156 5.3125 14.0156C8.02281 14.0156 9.15305 15.5147 9.41406 15.9301Z" fill="#FBF5F3"/>
<path d="M17.0312 16.3594C17.3551 16.3594 17.6172 16.0973 17.6172 15.7734V2.88281C17.6172 2.55895 17.3551 2.29688 17.0312 2.29688H12.3438C11.6817 2.29688 11.0771 2.52598 10.5859 2.89777V16.9453C10.5859 16.622 10.8486 16.3594 11.1719 16.3594H17.0312Z" fill="#FBF5F3"/>
<path d="M2.96875 2.29688C2.64488 2.29688 2.38281 2.55895 2.38281 2.88281V15.7734C2.38281 16.0973 2.64488 16.3594 2.96875 16.3594H8.27531C7.94715 15.9616 7.08656 15.1875 5.3125 15.1875C4.3432 15.1875 3.55469 14.399 3.55469 13.4297V2.29688H2.96875Z" fill="#FBF5F3"/>
</svg>
