<svg width="40" height="40" viewBox="0 0 40 40" fill="none" xmlns="http://www.w3.org/2000/svg">
<path d="M20 0C8.9725 0 0 8.9725 0 20C0 31.0275 8.9725 40 20 40C31.0275 40 40 31.0275 40 20C40 8.9725 31.0275 0 20 0ZM29.175 28.87C28.93 29.2175 28.545 29.4025 28.1525 29.4025C27.9025 29.4025 27.6525 29.33 27.435 29.175C22.7475 25.88 14.95 25.6975 9.685 26.925C9.0175 27.0825 8.34 26.6625 8.185 25.99C8.03 25.3175 8.445 24.645 9.12 24.4875C14.9075 23.1475 23.5575 23.3925 28.87 27.13C29.435 27.5275 29.57 28.305 29.175 28.87ZM31.615 23.9925C31.37 24.3325 30.9875 24.5125 30.6 24.5125C30.345 24.5125 30.0925 24.4375 29.87 24.2775C24.4325 20.375 17.7525 19.405 8.8375 21.225C8.165 21.3575 7.5 20.9275 7.3625 20.25C7.2225 19.575 7.66 18.9125 8.335 18.775C17.9775 16.8075 25.2825 17.9075 31.3275 22.245C31.8875 22.65 32.0175 23.43 31.615 23.9925ZM34.08 17.4425C33.8375 17.8 33.4425 17.99 33.045 17.99C32.8025 17.99 32.5575 17.92 32.3425 17.775C25.45 13.0975 14.9725 13.075 8.19 15.475C7.54 15.7 6.825 15.3625 6.595 14.71C6.365 14.06 6.705 13.345 7.3575 13.115C14.735 10.5075 26.1675 10.5625 33.75 15.705C34.32 16.0925 34.465 16.87 34.08 17.4425Z" fill="#FBF5F3"/>
</svg>
