<svg width="20" height="18" viewBox="0 0 20 18" fill="none" xmlns="http://www.w3.org/2000/svg">
<path d="M9.84778 5.83254L12.7108 8.69553L12.7244 8.54556C12.7244 7.04134 11.502 5.81891 9.99774 5.81891L9.84778 5.83254Z" fill="#1F1F1F"/>
<path d="M9.99795 4.0012C12.5065 4.0012 14.5424 6.03712 14.5424 8.54564C14.5424 9.13187 14.4242 9.69083 14.2197 10.2043L16.8782 12.8628C18.2506 11.7176 19.3322 10.2362 20.0002 8.54564C18.4233 4.55565 14.5469 1.729 9.99799 1.729C8.72554 1.729 7.50766 1.95621 6.3761 2.36521L8.33929 4.32384C8.85275 4.1239 9.41172 4.0012 9.99795 4.0012Z" fill="#1F1F1F"/>
<path d="M0.90887 1.52443L2.98113 3.59668L3.39468 4.01024C1.89502 5.1827 0.70893 6.74145 0 8.54556C1.57238 12.5355 5.45331 15.3622 9.99774 15.3622C11.4065 15.3622 12.7517 15.0895 13.9832 14.5942L14.3695 14.9805L17.0189 17.6344L18.1777 16.4801L2.0677 0.365601L0.90887 1.52443ZM5.93503 6.54603L7.33926 7.95026C7.29836 8.14568 7.27109 8.34106 7.27109 8.54556C7.27109 10.0498 8.49352 11.2722 9.99774 11.2722C10.2022 11.2722 10.3977 11.2449 10.5885 11.204L11.9928 12.6083C11.3883 12.9082 10.7158 13.09 9.99774 13.09C7.48922 13.09 5.45331 11.0541 5.45331 8.54556C5.45331 7.82756 5.6351 7.15497 5.93503 6.54603Z" fill="#1F1F1F"/>
</svg>
