<svg width="20" height="14" viewBox="0 0 20 14" fill="none" xmlns="http://www.w3.org/2000/svg">
<path d="M0.12207 6.70411L6.37207 0.454111C6.53484 0.291338 6.79852 0.291338 6.96125 0.454111C7.12402 0.616885 7.12402 0.880557 6.96125 1.04329L1.4225 6.58204H19.5833C19.8136 6.58204 20 6.76841 20 6.99872C20 7.22903 19.8136 7.4154 19.5833 7.4154H1.4225L6.96125 12.9541C7.12402 13.1169 7.12402 13.3806 6.96125 13.5433C6.87988 13.6247 6.77324 13.6654 6.66664 13.6654C6.56004 13.6654 6.45344 13.6247 6.37203 13.5433L0.12203 7.29329C-0.0407028 7.13056 -0.0407028 6.86688 0.12207 6.70411Z" fill="#565656"/>
</svg>
