<svg width="20" height="21" viewBox="0 0 20 21" fill="none" xmlns="http://www.w3.org/2000/svg">
<g clip-path="url(#clip0)">
<path d="M10 0.5C7.09223 0.5 4.72656 2.86566 4.72656 5.77344C4.72656 8.68121 7.09223 11.0469 10 11.0469C12.9078 11.0469 15.2734 8.68121 15.2734 5.77344C15.2734 2.86566 12.9078 0.5 10 0.5Z" fill="white"/>
<path d="M16.5612 14.492C15.1174 13.0261 13.2035 12.2188 11.1719 12.2188H8.82812C6.79656 12.2188 4.88258 13.0261 3.43883 14.492C2.00215 15.9507 1.21094 17.8763 1.21094 19.9141C1.21094 20.2377 1.47328 20.5 1.79688 20.5H18.2031C18.5267 20.5 18.7891 20.2377 18.7891 19.9141C18.7891 17.8763 17.9979 15.9507 16.5612 14.492Z" fill="white"/>
</g>
<defs>
<clipPath id="clip0">
<rect width="20" height="20" fill="white" transform="translate(0 0.5)"/>
</clipPath>
</defs>
</svg>
