<svg width="40" height="28" viewBox="0 0 40 28" fill="none" xmlns="http://www.w3.org/2000/svg">
<path d="M38.3 2.9C37.215 0.97 36.0375 0.615 33.64 0.48C31.245 0.3175 25.2225 0.25 20.005 0.25C14.7775 0.25 8.7525 0.3175 6.36 0.4775C3.9675 0.615 2.7875 0.9675 1.6925 2.9C0.575 4.8275 0 8.1475 0 13.9925C0 13.9975 0 14 0 14C0 14.005 0 14.0075 0 14.0075V14.0125C0 19.8325 0.575 23.1775 1.6925 25.085C2.7875 27.015 3.965 27.365 6.3575 27.5275C8.7525 27.6675 14.7775 27.75 20.005 27.75C25.2225 27.75 31.245 27.6675 33.6425 27.53C36.04 27.3675 37.2175 27.0175 38.3025 25.0875C39.43 23.18 40 19.835 40 14.015C40 14.015 40 14.0075 40 14.0025C40 14.0025 40 13.9975 40 13.995C40 8.1475 39.43 4.8275 38.3 2.9ZM15 21.5V6.5L27.5 14L15 21.5Z" fill="#FBF5F3"/>
</svg>
